<mxfile host="app.diagrams.net" modified="2023-04-14T05:57:24.842Z" agent="Mozilla/5.0 (X11; Linux x86_64) AppleWebKit/537.36 (KHTML, like Gecko) Chrome/112.0.0.0 Safari/537.36" etag="fZPyC8ynFfD8alTvK_oT" version="21.1.7" type="github">
  <diagram name="Page-1" id="EtdVnsgJ7x85QrGl88yU">
    <mxGraphModel dx="2210" dy="775" grid="1" gridSize="10" guides="1" tooltips="1" connect="1" arrows="1" fold="1" page="1" pageScale="1" pageWidth="850" pageHeight="1100" math="0" shadow="0">
      <root>
        <mxCell id="0" />
        <mxCell id="1" parent="0" />
        <mxCell id="gOypWcditO73Rw7QFpgT-11" value="" style="edgeStyle=orthogonalEdgeStyle;rounded=0;orthogonalLoop=1;jettySize=auto;html=1;" edge="1" parent="1" source="gOypWcditO73Rw7QFpgT-1" target="gOypWcditO73Rw7QFpgT-8">
          <mxGeometry relative="1" as="geometry" />
        </mxCell>
        <mxCell id="gOypWcditO73Rw7QFpgT-1" value="VA-200GB" style="whiteSpace=wrap;html=1;aspect=fixed;" vertex="1" parent="1">
          <mxGeometry x="40" y="170" width="80" height="80" as="geometry" />
        </mxCell>
        <mxCell id="gOypWcditO73Rw7QFpgT-3" value="&lt;b&gt;&lt;font style=&quot;font-size: 14px;&quot;&gt;Monitoring-server&lt;/font&gt;&lt;/b&gt;" style="text;html=1;strokeColor=none;fillColor=none;align=center;verticalAlign=middle;whiteSpace=wrap;rounded=0;" vertex="1" parent="1">
          <mxGeometry x="50" y="130" width="60" height="30" as="geometry" />
        </mxCell>
        <mxCell id="gOypWcditO73Rw7QFpgT-4" value="VB-80GB" style="whiteSpace=wrap;html=1;aspect=fixed;" vertex="1" parent="1">
          <mxGeometry x="40" y="340" width="80" height="80" as="geometry" />
        </mxCell>
        <mxCell id="gOypWcditO73Rw7QFpgT-5" value="Instance-B" style="text;html=1;strokeColor=none;fillColor=none;align=center;verticalAlign=middle;whiteSpace=wrap;rounded=0;" vertex="1" parent="1">
          <mxGeometry x="50" y="310" width="60" height="30" as="geometry" />
        </mxCell>
        <mxCell id="gOypWcditO73Rw7QFpgT-6" value="Stop &amp;amp; Detach VB" style="text;html=1;strokeColor=none;fillColor=none;align=center;verticalAlign=middle;whiteSpace=wrap;rounded=0;" vertex="1" parent="1">
          <mxGeometry x="50" y="450" width="60" height="30" as="geometry" />
        </mxCell>
        <mxCell id="gOypWcditO73Rw7QFpgT-7" value="Will create Snap &amp;amp; Create a Volume from that SNAP named as &lt;b&gt;VASNAP&lt;/b&gt;" style="text;html=1;align=center;verticalAlign=middle;resizable=0;points=[];autosize=1;strokeColor=none;fillColor=none;" vertex="1" parent="1">
          <mxGeometry x="40" y="250" width="410" height="30" as="geometry" />
        </mxCell>
        <mxCell id="gOypWcditO73Rw7QFpgT-12" value="" style="edgeStyle=orthogonalEdgeStyle;rounded=0;orthogonalLoop=1;jettySize=auto;html=1;" edge="1" parent="1" source="gOypWcditO73Rw7QFpgT-8" target="gOypWcditO73Rw7QFpgT-10">
          <mxGeometry relative="1" as="geometry" />
        </mxCell>
        <mxCell id="gOypWcditO73Rw7QFpgT-8" value="SNAP" style="whiteSpace=wrap;html=1;" vertex="1" parent="1">
          <mxGeometry x="160" y="180" width="120" height="60" as="geometry" />
        </mxCell>
        <mxCell id="gOypWcditO73Rw7QFpgT-17" value="" style="edgeStyle=orthogonalEdgeStyle;rounded=0;orthogonalLoop=1;jettySize=auto;html=1;entryX=-0.037;entryY=0.425;entryDx=0;entryDy=0;entryPerimeter=0;" edge="1" parent="1" source="gOypWcditO73Rw7QFpgT-10" target="gOypWcditO73Rw7QFpgT-13">
          <mxGeometry relative="1" as="geometry">
            <mxPoint x="540" y="210" as="targetPoint" />
            <Array as="points">
              <mxPoint x="550" y="210" />
              <mxPoint x="550" y="304" />
            </Array>
          </mxGeometry>
        </mxCell>
        <mxCell id="gOypWcditO73Rw7QFpgT-10" value="&lt;b&gt;VASNAP - 200GB&lt;/b&gt;" style="whiteSpace=wrap;html=1;" vertex="1" parent="1">
          <mxGeometry x="320" y="180" width="120" height="60" as="geometry" />
        </mxCell>
        <mxCell id="gOypWcditO73Rw7QFpgT-13" value="VB-8GB" style="whiteSpace=wrap;html=1;aspect=fixed;" vertex="1" parent="1">
          <mxGeometry x="660" y="270" width="80" height="80" as="geometry" />
        </mxCell>
        <mxCell id="gOypWcditO73Rw7QFpgT-14" value="Instance-C" style="text;html=1;strokeColor=none;fillColor=none;align=center;verticalAlign=middle;whiteSpace=wrap;rounded=0;" vertex="1" parent="1">
          <mxGeometry x="660" y="240" width="80" height="30" as="geometry" />
        </mxCell>
        <mxCell id="gOypWcditO73Rw7QFpgT-18" style="edgeStyle=orthogonalEdgeStyle;rounded=0;orthogonalLoop=1;jettySize=auto;html=1;entryX=0;entryY=0.75;entryDx=0;entryDy=0;" edge="1" parent="1" source="gOypWcditO73Rw7QFpgT-15" target="gOypWcditO73Rw7QFpgT-13">
          <mxGeometry relative="1" as="geometry" />
        </mxCell>
        <mxCell id="gOypWcditO73Rw7QFpgT-15" value="&lt;b&gt;VB-80GB&lt;/b&gt;" style="whiteSpace=wrap;html=1;aspect=fixed;" vertex="1" parent="1">
          <mxGeometry x="170" y="340" width="80" height="80" as="geometry" />
        </mxCell>
        <mxCell id="gOypWcditO73Rw7QFpgT-20" value="VB /dev/xvdf&lt;br&gt;" style="text;html=1;align=center;verticalAlign=middle;resizable=0;points=[];autosize=1;strokeColor=none;fillColor=none;" vertex="1" parent="1">
          <mxGeometry x="290" y="350" width="90" height="30" as="geometry" />
        </mxCell>
        <mxCell id="gOypWcditO73Rw7QFpgT-21" value="VASNAP /dev/xvdg" style="text;html=1;align=center;verticalAlign=middle;resizable=0;points=[];autosize=1;strokeColor=none;fillColor=none;" vertex="1" parent="1">
          <mxGeometry x="450" y="180" width="130" height="30" as="geometry" />
        </mxCell>
        <mxCell id="gOypWcditO73Rw7QFpgT-22" value="Attched" style="text;html=1;align=center;verticalAlign=middle;resizable=0;points=[];autosize=1;strokeColor=none;fillColor=none;" vertex="1" parent="1">
          <mxGeometry x="475" y="295" width="60" height="30" as="geometry" />
        </mxCell>
        <mxCell id="gOypWcditO73Rw7QFpgT-23" value="Detach" style="text;html=1;align=center;verticalAlign=middle;resizable=0;points=[];autosize=1;strokeColor=none;fillColor=none;rotation=-90;" vertex="1" parent="1">
          <mxGeometry x="120" y="365" width="60" height="30" as="geometry" />
        </mxCell>
        <mxCell id="gOypWcditO73Rw7QFpgT-27" value="" style="edgeStyle=orthogonalEdgeStyle;rounded=0;orthogonalLoop=1;jettySize=auto;html=1;" edge="1" parent="1" source="gOypWcditO73Rw7QFpgT-25" target="gOypWcditO73Rw7QFpgT-26">
          <mxGeometry relative="1" as="geometry" />
        </mxCell>
        <mxCell id="gOypWcditO73Rw7QFpgT-25" value="Will copy the data from VASNAP to VB" style="text;html=1;align=center;verticalAlign=middle;resizable=0;points=[];autosize=1;strokeColor=none;fillColor=none;" vertex="1" parent="1">
          <mxGeometry x="585" y="360" width="230" height="30" as="geometry" />
        </mxCell>
        <mxCell id="gOypWcditO73Rw7QFpgT-34" style="edgeStyle=orthogonalEdgeStyle;rounded=0;orthogonalLoop=1;jettySize=auto;html=1;" edge="1" parent="1" source="gOypWcditO73Rw7QFpgT-26">
          <mxGeometry relative="1" as="geometry">
            <mxPoint x="390" y="630" as="targetPoint" />
          </mxGeometry>
        </mxCell>
        <mxCell id="gOypWcditO73Rw7QFpgT-26" value="VB-8GB" style="whiteSpace=wrap;html=1;aspect=fixed;" vertex="1" parent="1">
          <mxGeometry x="660" y="480" width="80" height="80" as="geometry" />
        </mxCell>
        <mxCell id="gOypWcditO73Rw7QFpgT-28" value="Stopped the Instance-C &amp;amp; Detach VB" style="text;html=1;align=center;verticalAlign=middle;resizable=0;points=[];autosize=1;strokeColor=none;fillColor=none;" vertex="1" parent="1">
          <mxGeometry x="610" y="420" width="220" height="30" as="geometry" />
        </mxCell>
        <mxCell id="gOypWcditO73Rw7QFpgT-29" value="&lt;font color=&quot;#ec0914&quot;&gt;VA-200GB&lt;/font&gt;" style="whiteSpace=wrap;html=1;aspect=fixed;" vertex="1" parent="1">
          <mxGeometry x="40" y="680" width="80" height="80" as="geometry" />
        </mxCell>
        <mxCell id="gOypWcditO73Rw7QFpgT-30" value="&lt;b&gt;&lt;font style=&quot;font-size: 14px;&quot;&gt;Monitoring-server&lt;/font&gt;&lt;/b&gt;" style="text;html=1;strokeColor=none;fillColor=none;align=center;verticalAlign=middle;whiteSpace=wrap;rounded=0;" vertex="1" parent="1">
          <mxGeometry x="50" y="640" width="60" height="30" as="geometry" />
        </mxCell>
        <mxCell id="gOypWcditO73Rw7QFpgT-31" value="Will Stopp the server &amp;amp; Detach the VA &amp;amp; Attach VB as /dev/sda1" style="text;html=1;align=center;verticalAlign=middle;resizable=0;points=[];autosize=1;strokeColor=none;fillColor=none;" vertex="1" parent="1">
          <mxGeometry x="-90" y="775" width="360" height="30" as="geometry" />
        </mxCell>
        <mxCell id="gOypWcditO73Rw7QFpgT-32" value="&lt;b&gt;VB-80GB&lt;/b&gt;" style="whiteSpace=wrap;html=1;aspect=fixed;" vertex="1" parent="1">
          <mxGeometry x="350" y="680" width="80" height="80" as="geometry" />
        </mxCell>
        <mxCell id="gOypWcditO73Rw7QFpgT-33" value="&lt;b&gt;&lt;font style=&quot;font-size: 14px;&quot;&gt;Monitoring-server&lt;/font&gt;&lt;/b&gt;" style="text;html=1;strokeColor=none;fillColor=none;align=center;verticalAlign=middle;whiteSpace=wrap;rounded=0;" vertex="1" parent="1">
          <mxGeometry x="360" y="640" width="60" height="30" as="geometry" />
        </mxCell>
      </root>
    </mxGraphModel>
  </diagram>
</mxfile>
